<svg xmlns="http://www.w3.org/2000/svg" width="24" height="20" viewBox="0 0 24 20">
    <g id="prefix__Group_359" data-name="Group 359" transform="translate(-1025.908 -41)">
        <path id="prefix__heart" fill="#cc1212" d="M22.1 1.957A6.663 6.663 0 0 0 17.3 0a6.3 6.3 0 0 0-3.771 1.219A7.46 7.46 0 0 0 12 2.71a7.456 7.456 0 0 0-1.525-1.491A6.3 6.3 0 0 0 6.7 0a6.663 6.663 0 0 0-4.8 1.957A6.776 6.776 0 0 0 0 6.756a8.088 8.088 0 0 0 2.38 5.477 49.563 49.563 0 0 0 5.959 5.239c.826.659 1.761 1.406 2.733 2.2a1.481 1.481 0 0 0 1.855 0c.972-.8 1.908-1.543 2.734-2.2a49.54 49.54 0 0 0 5.958-5.238A8.087 8.087 0 0 0 24 6.756a6.775 6.775 0 0 0-1.9-4.799zm0 0" transform="translate(1025.908 41)"/>
    </g>
</svg>
