<svg xmlns="http://www.w3.org/2000/svg" width="213" height="197" viewBox="0 0 213 197">
    <g id="Group_397" data-name="Group 397" transform="translate(-186 -1825)">
        <path id="Rectangle_196" fill="#f4f4f4" d="M0 0H213V197H0z" data-name="Rectangle 196" transform="translate(186 1825)"/>
        <path id="shopping-bag" fill="#539ddb" d="M117.7 62.96l-3.524-39.812a5.748 5.748 0 0 0-5.763-5.262 1.258 1.258 0 0 0-1.258 1.255v6.207a1.181 1.181 0 0 1-1.081 1.19 1.156 1.156 0 0 1-1.234-1.151V11.972a12.006 12.006 0 0 0-24.012 0v5.914h-3.575a5.748 5.748 0 0 0-5.763 5.262L67.966 62.96a5.781 5.781 0 0 0 5.764 6.278h38.2a5.781 5.781 0 0 0 5.77-6.278zm-31.522-1.367h-8.39a1.154 1.154 0 1 1 0-2.308h8.39a1.154 1.154 0 1 1 0 2.308zm0-5.77h-8.39a1.154 1.154 0 1 1 0-2.308h8.39a1.154 1.154 0 1 1 0 2.308zm16.345-37.937h-15.81a1.258 1.258 0 0 0-1.258 1.255v6.207a1.181 1.181 0 0 1-1.081 1.19 1.156 1.156 0 0 1-1.234-1.151V11.972a9.692 9.692 0 0 1 19.383 0z" transform="translate(200.056 1889)"/>
    </g>
</svg>
