<svg xmlns="http://www.w3.org/2000/svg" width="213" height="197" viewBox="0 0 213 197">
    <defs>
        <style>
            .cls-2{fill:#539ddb}
        </style>
    </defs>
    <g id="Group_395" data-name="Group 395" transform="translate(-868 -1825)">
        <path id="Rectangle_198" fill="#f4f4f4" d="M0 0H213V197H0z" data-name="Rectangle 198" transform="translate(868 1825)"/>
        <g id="mobile-phone" transform="translate(947 1889)">
            <path id="Path_169" d="M249.965 90H217.5v28.737l5.363-4.388h27.1zm-14.2 18.262H231.7V104.2h-4.058v-4.058h4.058v-4.055h4.058v4.058h4.058v4.055h-4.058z" class="cls-2" data-name="Path 169" transform="translate(-195.18 -77.75)"/>
            <path id="Path_170" d="M74.191 124.494h-3.43V90H52.5v38.552h40.751v-10.145h-11.62z" class="cls-2" data-name="Path 170" transform="translate(-52.5 -77.726)"/>
            <path id="Path_171" d="M93.081 8.116V6.64A6.648 6.648 0 0 0 86.441 0H59.14a6.648 6.648 0 0 0-6.64 6.64v1.476z" class="cls-2" data-name="Path 171" transform="translate(-52.5)"/>
            <path id="Path_172" d="M52.5 405v7.563a6.648 6.648 0 0 0 6.64 6.64h27.47a6.648 6.648 0 0 0 6.64-6.64V405zm24.349 8.793h-8.116v-4.058h8.115z" class="cls-2" data-name="Path 172" transform="translate(-52.5 -349.966)"/>
        </g>
    </g>
</svg>
